PathFileType	4	(X/Y/Z)	Patient4_TMGait_0pt2_03_right_25.trc.trc
DataRate	CameraRate	NumFrames	NumMarkers	Units	OrigDataRate	OrigDataStartFrame	OrigNumFrames
49.295774647887	49.295774647887	6	33	mm	49.295774647887	71	       141
Frame#	Time	Sacral			L.Shoulder			Chest			R.Shoulder			Neck			R.ASIS			L.ASIS			R.Thigh.Superior			R.Thigh.Lateral			R.Thigh.Inferior			R.Patella			L.Thigh.Superior			L.Thigh.Lateral			L.Thigh.Inferior			L.Patella			L.Shank.Superior			L.Shank.Lateral			L.Shank.Inferior			R.Shank.Superior			R.Shank.Lateral			R.Shank.Inferior			R.Heel			R.Midfoot.Superior			R.Midfoot.Lateral			R.Toe			L.Heel			L.Midfoot.Lateral			L.Midfoot.Superior			L.Toe			L.Elbow			L.Wrist			R.Elbow			R.Wrist			
		X1	Y1	Z1	X2	Y2	Z2	X3	Y3	Z3	X4	Y4	Z4	X5	Y5	Z5	X6	Y6	Z6	X7	Y7	Z7	X8	Y8	Z8	X9	Y9	Z9	X10	Y10	Z10	X11	Y11	Z11	X12	Y12	Z12	X13	Y13	Z13	X14	Y14	Z14	X15	Y15	Z15	X16	Y16	Z16	X17	Y17	Z17	X18	Y18	Z18	X19	Y19	Z19	X20	Y20	Z20	X21	Y21	Z21	X22	Y22	Z22	X23	Y23	Z23	X24	Y24	Z24	X25	Y25	Z25	X26	Y26	Z26	X27	Y27	Z27	X28	Y28	Z28	X29	Y29	Z29	X30	Y30	Z30	X31	Y31	Z31	X32	Y32	Z32	X33	Y33	Z33	

71	54.680000000000	924.582322488936	1010.096197751484	602.897527471392	1048.831333904539	1433.766119531555	383.155591549017	1196.876593574834	1355.147268025575	497.888199963173	1184.907295772545	1432.492957321390	687.176171982370	1088.767390507535	1491.662844135884	535.074187104896	1170.782520424630	930.785431026329	653.408873643938	1088.143419288986	963.137215330080	392.183726753987	1172.719828959129	723.355535422076	614.481680702029	1091.028863754602	619.849449729755	688.352208068143	1139.740413593246	563.404176292137	593.086264978717	1127.720345367842	474.844002486160	598.033595045102	1155.966378053934	766.778581553898	400.979972721852	1075.667603264806	634.490984835564	329.241927547436	1189.122307350223	577.736320228028	375.920188429526	1206.134135179023	513.040641544121	370.212096980846	1187.981766124115	442.495640367856	354.058094904234	1112.648376116237	321.347369780227	294.252715146993	1195.954176176952	212.689078524128	336.617165365564	1086.587433968955	390.754520979800	607.651693747881	1010.526624195398	295.186250513744	677.177070801832	1025.077722771918	199.304073348347	605.423478655056	867.267425063093	45.252030817992	585.836091012662	1041.213213330966	95.676643078366	610.681914921313	954.879219399811	36.936127512481	654.733923783300	1162.310406990674	41.276319590265	630.716572676002	1099.413357125910	39.692959702933	360.812822545765	1174.005503128515	43.415061393748	281.447220294714	1250.812592955879	113.347302567152	307.615019714879	1381.599600832593	75.541299033725	279.692466803841	844.447719643588	1143.170858562654	345.308956918479	766.832773456112	901.698098412381	418.082347497274	1398.094720677474	1175.270282497429	786.660305889291	1625.769810247927	1261.113002168950	706.754446156695	
72	54.700285714286	925.357353109475	1009.011410433288	599.651249296409	1048.597674868089	1432.746724315869	379.378290149877	1196.830191133585	1354.588478714646	494.202243288404	1184.537744218822	1431.775121808673	683.454088842549	1088.467138950494	1490.941722497047	531.321637658084	1171.775589348373	930.355486202443	650.408514569497	1088.993532845373	961.695341127992	389.166104222167	1173.095199455722	722.655929857467	611.933282412038	1090.934763664575	619.468278099408	686.197873009767	1139.202403335102	562.571840293541	591.190158846949	1126.425314263200	473.904213950967	596.440064657912	1155.758086893359	763.643014072653	397.799244920844	1072.362780616717	631.829133867324	328.282192991063	1185.855713986034	574.652371135699	373.987572774527	1201.628153818526	510.309518811080	369.062882096484	1184.185893291217	439.949679508469	353.161253255160	1109.137164341825	318.210964343956	294.734657878290	1193.210363189494	210.318454063165	337.231552459264	1084.791387798347	390.073230105368	606.330957777831	1008.173673587374	295.263841345578	676.412496835170	1021.944947279949	199.022376155175	604.940558390318	863.238914360520	45.538811777288	585.930750632494	1037.249607945914	95.703227696338	610.664045415553	950.863800027607	37.062448534914	654.771299298929	1158.285253435918	41.164446923493	630.749572353400	1096.874157840517	38.586458098405	362.581899660515	1171.476755567998	41.341291075619	283.181926696604	1248.745619500221	110.503005618412	309.195141239400	1379.195061319938	71.412951663743	281.655569304485	846.804549132470	1139.975290192393	341.975147533191	771.176033125292	897.941132238497	415.061642751342	1399.341600930858	1175.200175645703	780.241213017087	1624.346921512143	1266.522626001759	699.213327812726	
73	54.720571428571	926.228016279980	1008.030361626600	596.142824186354	1048.545858124511	1431.832290228392	375.269649196566	1196.894320278262	1354.208588300841	490.330742998520	1184.097459653698	1431.242135870439	679.576674793020	1088.168389254397	1490.361743954814	527.252928163200	1172.871396099439	930.054241397131	647.221683540589	1090.044858546877	960.426959922733	385.957834458572	1173.696183365858	722.054219466119	609.227758145900	1091.037029329941	619.180071149923	683.848899522104	1138.912048856237	561.815851688011	589.131708214689	1125.388262410494	473.032573514400	594.690078035915	1156.025414169057	760.921121094465	394.560691109999	1069.919314076524	629.587777021361	327.026954443320	1183.424920523881	572.055269162770	371.978351363841	1198.046674843803	507.898065859090	367.705591594499	1181.055396194797	437.646740515040	352.079651128358	1105.873622237310	315.612779832455	294.876630711675	1190.190400596841	208.122227783593	337.567128476367	1083.171861356046	389.482367834785	604.892791660597	1005.960892285688	295.509671123738	675.587894904909	1018.920745763885	198.863958721464	604.429173897173	859.248055871517	46.044385153534	586.065645866437	1033.357522335362	95.764050446422	610.655350514093	946.885719666956	37.303297916914	654.825421498256	1154.283171682609	41.011678774182	630.786149603985	1093.286592497120	37.986272668495	364.033470442659	1167.912522059166	39.597759704282	284.585297087001	1245.927967646357	107.684675262496	310.509698735275	1375.928665291722	66.858925998489	283.290461370992	849.867722310850	1136.552561409108	337.463568326082	776.880850361679	893.595515024782	410.072616579929	1399.546548815016	1174.540080363541	774.339799132561	1622.470944262786	1269.728659232082	692.403217424202	
74	54.740857142857	927.167778921416	1007.271131151637	592.383013211950	1048.694121860569	1431.122689656953	370.881554807435	1197.088915455043	1354.064265812397	486.291040199556	1183.656779116244	1430.956740237645	675.555419170900	1087.919131427782	1489.994224640866	522.919160664365	1174.012648745889	929.924449506745	643.829856455818	1091.245005022884	959.454399347987	382.542174510932	1174.365580001143	721.590965328920	606.365540329838	1091.180021314460	619.060335685604	681.340335977353	1138.690960137527	561.193777484730	586.945159013057	1124.439149645798	472.315084497132	592.833492503461	1156.730099231613	758.780545208588	391.271479051201	1068.455295438205	627.888980302552	325.377076840989	1181.906037446053	570.061835451211	369.867344413507	1195.497542056345	505.925429708272	366.137788849736	1178.728846141154	435.704094937289	350.815100424028	1103.119314984111	313.627585501767	294.568311738080	1187.153558140428	206.201305909535	337.602704168088	1081.607967393762	389.061320079863	603.384000296267	1003.790308316350	295.973708704629	674.722948370235	1015.964157317298	198.885281692648	603.912688477015	855.302448567599	46.808120394495	586.243571029674	1029.545853230452	95.865256053673	610.658320843790	942.949207843281	37.680312920787	654.898748521452	1150.305027501547	40.816580750306	630.826906710882	1089.061868492761	37.784761384305	365.083773945498	1163.728135842352	38.224282307435	285.590900538305	1242.642781215593	105.093481242843	311.501675648086	1372.157884900738	62.327936936192	284.540521670615	853.526789691865	1133.135216067404	331.850235350787	783.799951185823	888.925315755487	403.192035785909	1398.880180866309	1173.455267215326	768.999689930851	1620.385965471440	1270.910954805501	686.308337232327	
75	54.761142857143	928.141334523621	1006.814718811999	588.364437722862	1049.061442558043	1430.683330781182	366.266164627040	1197.428841886246	1354.177909735974	482.107320407873	1183.269095397906	1430.941031677040	671.406136461745	1087.764079950012	1489.877923737933	518.376410962117	1175.134015068654	929.986818105342	640.218168059909	1092.548566462411	958.856401754898	378.898325411971	1174.948349902249	721.291801542402	603.346284782908	1091.219665480876	619.163354009735	678.703467407764	1138.378935562243	560.748470642240	584.659934030371	1123.430023883439	471.816330942806	590.915602029465	1157.833298726717	757.334869537831	387.942327078965	1068.050383194234	626.784365457465	323.283928215428	1181.342222416949	568.720814426417	367.652379617248	1194.046512908239	504.442477351818	364.393747453953	1177.291264021407	434.175409393416	349.406089573515	1101.059761838789	312.276736946336	293.785195672794	1184.284277357490	204.613742912966	337.384393098907	1079.995063613264	388.865515306303	601.843763703483	1001.574878060722	296.684842348569	673.828495977113	1013.037847018974	199.122275701138	603.407324345790	851.407866897215	47.849744766206	586.459413739118	1025.816814709851	96.010038163819	610.671874781488	939.055379903714	38.205876861308	654.989550682194	1146.349030883768	40.581547350577	630.872260805023	1084.533665520982	37.873643268033	365.731880116785	1159.251322181310	37.237054633501	286.207996586932	1239.098785695733	102.883031324369	312.177198154236	1368.148217490223	58.186253263323	285.398725875962	857.667237410950	1129.917696402455	325.241608206830	791.775339258885	884.174831096663	394.555805006444	1397.533431052704	1172.109547429484	764.224826529077	1618.320289098092	1270.290860050793	680.906217802531	
76	54.781428571429	929.107669946608	1006.694693336493	584.061958875661	1049.665356569616	1430.537797876414	361.469334465183	1197.922276414834	1354.535746604626	477.807915085378	1182.964224109800	1431.175913181232	667.148126814593	1087.739126244585	1490.014585238102	513.678365295724	1176.169981188466	930.236748764662	636.380555558545	1093.924406414433	958.656367053888	375.007800646943	1175.313292594799	721.162074954294	600.175994342744	1091.033951644826	619.515308855372	675.963923314948	1137.849232435624	560.501017424538	582.301754867361	1122.245782587394	471.571649314928	588.973108978254	1159.294091151417	756.619042366657	384.591410922729	1068.716334746360	626.247812428818	320.758131099010	1181.722136507395	568.004921279294	365.357853944296	1193.699181723291	503.429095575498	362.536268862969	1176.759056605321	433.050004011454	347.912646002840	1099.786763007098	311.520359163672	292.580675843612	1181.692261142179	203.368714543677	337.001578534648	1078.251213060877	388.919676146268	600.299816898935	999.244717709337	297.646169292251	672.906939393699	1010.109435508138	199.585260492342	602.920489587939	847.566960141248	49.163223318186	586.699956215221	1022.164867105440	96.198449243985	610.691850914147	935.201646204090	38.880143075420	655.092135333016	1142.410574258432	40.312864984003	630.922267374429	1079.945778640653	38.154445883059	366.036659283766	1154.716522375094	36.622043495367	286.500934808730	1235.440847338882	101.136647607498	312.590381141352	1364.080657492294	54.664794246104	285.903737980152	862.175865829683	1127.041917318058	317.761723737025	800.646732505264	879.550264442508	384.348804282761	1395.701603143112	1170.648502085098	759.979794892589	1616.472265903817	1268.111141133464	676.171123691845	
